# xmcd
#
# Track frame offsets:
#	150
#	14342
#	30937
#	45617
#	62060
#	77270
#	90395
#
# Disc length: 1387 seconds
#
# Revision: 0
# Processed by: cddbd v1.5.2PL0 Copyright (c) Steve Scherf et al.
# Submitted via: EasyCDDAExtractor 10.0.6.1
#
DISCID=3f056907
DTITLE=Various Artist - CDX 15A Sept. 1991
DYEAR=1991
DGENRE=Country
TTITLE0=Jo-El Sonnier - All-American Saturday Night
TTITLE1=Kathy Mattea - Asking Us To Dance
TTITLE2=Dolly Parton - Eagle When She Flies
TTITLE3=Reba McEntire - For My Broken Heart
TTITLE4=Ray Benson - Four Score And Seven Beers Ago
TTITLE5=Dawn Sears - Good Goodbye
TTITLE6=Texas Tornados - Is Anybody Going To San Antone
EXTD=
EXTT0=
EXTT1=
EXTT2=
EXTT3=
EXTT4=
EXTT5=
EXTT6=
PLAYORDER=
